# xmcd
#
# Track frame offsets: 
#        182
#        12032
#        21645
#        38405
#        53130
#        68060
#        81735
#        97047
#        112892
#        127800
#        142332
#        152812
#        169700
#        185217
#
# Disc length: 2677 seconds
#
# Revision: 2
# Processed by: cddbd v1.5.2PL0 Copyright (c) Steve Scherf et al.
# Submitted via: ExactAudioCopyFreeDBPlugin 1.0
#
DISCID=c00a730e
DTITLE=Juke Boy Bonner - Things Ain't Right (The 1969 London Sessions)
DYEAR=1992
DGENRE=Blues
TTITLE0=Let's Boogie On
TTITLE1=Talkin' About Lightnin'
TTITLE2=Well Well
TTITLE3=Mr Downchild
TTITLE4=BU Blues
TTITLE5=Regent Sound
TTITLE6=Things Ain't Right
TTITLE7=Belfast Blues
TTITLE8=Trying To Call Home
TTITLE9=Mojo Hand
TTITLE10=Texas Turnpike
TTITLE11=Sun's Going Down
TTITLE12=Where I Live
TTITLE13=Travellin' Shoes
EXTD=YEAR: 1992
EXTT0=
EXTT1=
EXTT2=
EXTT3=
EXTT4=
EXTT5=
EXTT6=
EXTT7=
EXTT8=
EXTT9=
EXTT10=
EXTT11=
EXTT12=
EXTT13=
PLAYORDER=
